<?xml version="1.0" encoding="UTF-8"?>
<svg id="Layer_2" data-name="Layer 2" xmlns="http://www.w3.org/2000/svg" viewBox="0 0 116.81 56.15">
  <defs>
    <style>
      .cls-1 {
        font-family: SourceSerifRoman-Bold, 'Source Serif Variable';
        font-size: 23.52px;
        font-variation-settings: 'wght' 700;
        font-weight: 700;
      }

      .cls-1, .cls-2 {
        fill: #336c9b;
      }

      .cls-3 {
        letter-spacing: -.09em;
      }

      .cls-4 {
        fill: #f1f2f2;
      }

      .cls-4, .cls-2 {
        stroke-width: 0px;
      }

      .cls-5 {
        letter-spacing: -.09em;
      }

      .cls-6 {
        letter-spacing: -.02em;
      }

      .cls-7 {
        letter-spacing: -.01em;
      }

      .cls-8 {
        letter-spacing: 0em;
      }

      .cls-9 {
        letter-spacing: -.02em;
      }
    </style>
  </defs>
  <g id="Layer_1-2" data-name="Layer 1">
    <g>
      <text class="cls-1" transform="translate(57.38 28.15) rotate(-.68) scale(1.02 1)"><tspan class="cls-8" x="0" y="0">E</tspan><tspan class="cls-7" x="13.83" y="0">X</tspan><tspan class="cls-6" x="28.98" y="0">U</tspan><tspan x="45.7" y="0">S</tspan></text>
      <text class="cls-1" transform="translate(57.31 48.27)"><tspan class="cls-5" x="0" y="0">P</tspan><tspan class="cls-3" x="12.33" y="0">A</tspan><tspan class="cls-9" x="26.09" y="0">Y</tspan></text>
      <g>
        <path class="cls-2" d="m.23,47.34c-.61-1.04.12-2.62.55-3.72C5.12,32.02,6.7,19.57,10.79,7.91c.79-2.2,1.83-4.58,3.6-6.16,3.3-2.87,6.96-2.08,8.97,1.46,2.01,3.54,4.46,6.84,6.9,10.13s4.88,6.59,7.32,9.89c.92,1.28,1.53,2.93,2.62,4.03,2.2,2.14,2.26-2.08,2.69-3.78,1.4-5.68,2.93-11.35,4.64-16.97.43-1.4.85-2.81,1.04-4.27.37-2.62,5.49-1.59,7.14-1.4.43.06.85.06,1.22.37.85.67,0,2.44-.24,3.24-2.14,7.81-4.27,15.63-6.41,23.5-1.04,3.78-2.08,7.57-3.36,11.23-.92,2.62-1.83,6.65-4.58,8.06-1.4.73-4.7,1.16-6.04.31-.61-.37-1.04-.98-1.46-1.53-3.17-4.39-6.35-8.73-9.52-13.12-1.04-1.4-7.69-12.88-9.28-11.78-.24.18-.37.49-.43.85-1.71,6.84-3.48,13.73-5.19,20.57-.49,2.01-.61,5.55-3.11,5.68-1.1.06-2.2-.24-3.36-.12-1.04.12-2.26.43-3.17-.12-.18-.18-.43-.37-.55-.61Z"/>
        <polyline class="cls-4" points="20.48 7.93 40.62 35.15 38.54 40.34"/>
        <polyline class="cls-4" points="38.57 40.87 18.61 14.26 20.5 8.46"/>
      </g>
    </g>
  </g>
</svg>